# xmcd
#
# Track frame offsets: 
#        150
#        16175
#        31691
#        44829
#        61218
#        79349
#        96029
#        111371
#        128780
#        144147
#        156021
#
# Disc length: 2298 seconds
#
# Revision: 0
# Processed by: cddbd v1.5.2PL0 Copyright (c) Steve Scherf et al.
# Submitted via: ExactAudioCopy v0.95b4
#
DISCID=8608f80b
DTITLE=Jackson Taylor - Dark Days
DYEAR=2007
DGENRE=Country
TTITLE0=Outlaws Ain't Wanted Anymore
TTITLE1=Lonely
TTITLE2=Drinkin' Alone
TTITLE3=Outlaw Woman
TTITLE4=Miles
TTITLE5=Dark Days
TTITLE6=She's A Real Good Girl
TTITLE7=Goodbye Morphine
TTITLE8=Shallow Grave
TTITLE9=Tradin' In Tomorrow For Today
TTITLE10=Honky Tonk Heroes
EXTD=
EXTT0=
EXTT1=
EXTT2=
EXTT3=
EXTT4=
EXTT5=
EXTT6=
EXTT7=
EXTT8=
EXTT9=
EXTT10=
PLAYORDER=
